<svg id="visual" viewBox="0 0 1440 770" width="1440" height="770" xmlns="http://www.w3.org/2000/svg" xmlns:xlink="http://www.w3.org/1999/xlink" version="1.1"><rect x="0" y="0" width="1440" height="770" fill="#FFFFFF"></rect><g transform="translate(707.0911864719866 373.07220459588603)"><path d="M220.6 -387.4C278.9 -305.7 314.6 -232.8 384.9 -153.8C455.2 -74.7 560.2 10.4 563.9 90.9C567.6 171.4 470.1 247.1 383.3 313.2C296.6 379.3 220.5 435.8 127.9 485.9C35.3 536 -73.9 579.9 -195 581.9C-316.1 583.9 -449 544.1 -503.3 452.3C-557.5 360.5 -533.2 216.8 -530 90C-526.9 -36.9 -545 -147 -499.8 -220.9C-454.7 -294.8 -346.3 -332.5 -252.4 -398C-158.6 -463.4 -79.3 -556.7 0.9 -558.1C81.1 -559.5 162.2 -469 220.6 -387.4" fill="#274c77"></path></g></svg>